# xmcd
#
# Track frame offsets: 
#        150
#        9427
#        34275
#        56120
#        77958
#        103425
#        118344
#        142626
#        165260
#        187881
#        207454
#        229680
#
# Disc length: 3367 seconds
#
# Revision: 1
# Processed by: cddbd v1.5.2PL0 Copyright (c) Steve Scherf et al.
# Submitted via: ExactAudioCopy v1.0b3
#
DISCID=a00d250c
DTITLE=牧野由依 - マキノユイ。
DYEAR=2008
DGENRE=Soundtrack/moe
TTITLE0=雨の日の噴水
TTITLE1=マーマレード
TTITLE2=三月物語
TTITLE3=横顔
TTITLE4=スピラーレ
TTITLE5=ソルフェージュ
TTITLE6=synchronicity
TTITLE7=つきのしじま -ultimate mix-
TTITLE8=遠くまで行こう
TTITLE9=スケッチブックを持ったまま -弾き語り-
TTITLE10=DESTINY
TTITLE11=私について
EXTD=YEAR: 2008
EXTT0=
EXTT1=
EXTT2=
EXTT3=
EXTT4=
EXTT5=
EXTT6=
EXTT7=
EXTT8=
EXTT9=
EXTT10=
EXTT11=
PLAYORDER=
